<svg width="24" height="24" viewBox="0 0 24 24" fill="none" xmlns="http://www.w3.org/2000/svg">
<g clip-path="url(#clip0_1_129)">
<g filter="url(#filter0_d_1_129)">
<path d="M20.0311 20.79C20.4911 21.25 21.2011 20.54 20.7411 20.09L16.9911 16.33C18.3065 14.8745 19.0336 12.9818 19.0311 11.02C19.0311 6.63 15.4611 3.06 11.0711 3.06C6.68108 3.06 3.11108 6.63 3.11108 11.02C3.11108 15.41 6.68108 18.98 11.0711 18.98C13.0511 18.98 14.8811 18.25 16.2811 17.04L20.0311 20.79ZM4.11008 11.02C4.11008 7.18 7.24008 4.06 11.0701 4.06C14.9101 4.06 18.0301 7.18 18.0301 11.02C18.0301 14.86 14.9101 17.98 11.0701 17.98C7.24008 17.98 4.11008 14.86 4.11008 11.02Z" fill="black"/>
<path d="M18.0829 13.5672C18.378 12.758 18.5322 11.8967 18.5311 11.0206V11.02C18.5311 7.35401 15.8739 4.29768 12.3841 3.67565M18.0829 13.5672L11.0711 3.56M18.0829 13.5672C18.3722 12.7722 18.5301 11.9143 18.5301 11.02C18.5301 7.35212 15.8749 4.29748 12.3841 3.67565M18.0829 13.5672L11.0711 3.56M12.3841 3.67565C11.9577 3.59966 11.519 3.56 11.0711 3.56M12.3841 3.67565C11.9578 3.59971 11.519 3.56006 11.0711 3.56M16.6371 16.6831L18.8069 18.8588L16.6346 16.6864L16.3059 16.3577L15.9541 16.6617C15.2092 17.3055 14.3347 17.8042 13.3784 18.1152C14.545 17.7352 15.5859 17.0751 16.4214 16.2146L16.3018 16.3469L16.6371 16.6831ZM10.3506 3.59449C7.84166 3.83624 5.68743 5.32878 4.52656 7.44151C5.68593 5.32941 7.83806 3.8363 10.3506 3.59449ZM10.3506 18.4455C7.83806 18.2037 5.68593 16.7106 4.52656 14.5985C5.68743 16.7112 7.84166 18.2038 10.3506 18.4455Z" stroke="black"/>
</g>
</g>
<defs>
<filter id="filter0_d_1_129" x="-0.888916" y="3.06" width="25.7791" height="25.8791" filterUnits="userSpaceOnUse" color-interpolation-filters="sRGB">
<feFlood flood-opacity="0" result="BackgroundImageFix"/>
<feColorMatrix in="SourceAlpha" type="matrix" values="0 0 0 0 0 0 0 0 0 0 0 0 0 0 0 0 0 0 127 0" result="hardAlpha"/>
<feOffset dy="4"/>
<feGaussianBlur stdDeviation="2"/>
<feComposite in2="hardAlpha" operator="out"/>
<feColorMatrix type="matrix" values="0 0 0 0 0 0 0 0 0 0 0 0 0 0 0 0 0 0 0.25 0"/>
<feBlend mode="normal" in2="BackgroundImageFix" result="effect1_dropShadow_1_129"/>
<feBlend mode="normal" in="SourceGraphic" in2="effect1_dropShadow_1_129" result="shape"/>
</filter>
<clipPath id="clip0_1_129">
<rect width="24" height="24" fill="white"/>
</clipPath>
</defs>
</svg>
