<svg width="70" height="68" viewBox="0 0 70 68" fill="none" xmlns="http://www.w3.org/2000/svg">
<path d="M35 0.666656C39.5963 0.666656 44.1475 1.52885 48.3939 3.20401C52.6403 4.87916 56.4987 7.33448 59.7487 10.4298C62.9988 13.525 65.5769 17.1997 67.3358 21.2439C69.0947 25.2881 70 29.6226 70 34C70 42.8405 66.3125 51.319 59.7487 57.5702C53.185 63.8214 44.2826 67.3333 35 67.3333C30.4037 67.3333 25.8525 66.4711 21.6061 64.796C17.3597 63.1208 13.5013 60.6655 10.2513 57.5702C3.68749 51.319 0 42.8405 0 34C0 25.1594 3.68749 16.681 10.2513 10.4298C16.815 4.17855 25.7174 0.666656 35 0.666656ZM21 19.7V30.8333L45.99 34L21 37.1667V48.3L56 34L21 19.7Z" fill="#329A93"/>
</svg>
