<svg width="37" height="26" viewBox="0 0 37 26" fill="none" xmlns="http://www.w3.org/2000/svg">
<path d="M28.7083 9.875V2.58333C28.7083 2.0308 28.4932 1.5009 28.1103 1.11019C27.7275 0.719494 27.2082 0.5 26.6667 0.5H2.16667C1.62518 0.5 1.10588 0.719494 0.72299 1.11019C0.340103 1.5009 0.125 2.0308 0.125 2.58333V23.4167C0.125 23.9692 0.340103 24.4991 0.72299 24.8898C1.10588 25.2805 1.62518 25.5 2.16667 25.5H26.6667C27.2082 25.5 27.7275 25.2805 28.1103 24.8898C28.4932 24.4991 28.7083 23.9692 28.7083 23.4167V16.125L36.875 24.4583V1.54167L28.7083 9.875Z" fill="white"/>
</svg>
